<?xml version="1.0" encoding="utf-8"?>
<svg version="1.1" xmlns="http://www.w3.org/2000/svg" xmlns:xlink="http://www.w3.org/1999/xlink" x="0px" y="0px" viewBox="0 0 86.6 97.1" enable-background="new 0 0 86.6 97.1" xml:space="preserve">
	<path fill="#FFFFFF" d="M37.4,50.2c-1,0.8-1.8,1.8-2.5,2.9c-0.7,1.2-1.1,2.5-1.1,4c0,0.6,0.3,0.9,0.8,0.9c0.6,0,1.3-0.1,1.9-0.4 c0.6-0.3,1.1-0.6,1.7-1.1c0.5-0.5,1-1,1.5-1.6c0.5-0.6,0.9-1.2,1.3-1.8c0.4-0.6,0.8-1.3,1.1-1.9c0.3-0.6,0.6-1.2,0.8-1.8 c0.1-0.2,0.2-0.4,0.3-0.7c0.1-0.3,0.3-0.6,0.4-1c-0.9,0-1.9,0.2-2.9,0.6C39.5,48.8,38.4,49.4,37.4,50.2z"/>
	<path fill="#FFFFFF" d="M82.3,21L47.6,1c-2.4-1.4-6.3-1.4-8.7,0L4.3,21C1.9,22.4,0,25.8,0,28.5v40c0,2.8,1.9,6.1,4.3,7.5L39,96 c2.4,1.4,6.3,1.4,8.7,0l34.6-20c2.4-1.4,4.3-4.8,4.3-7.5v-40C86.6,25.8,84.7,22.4,82.3,21z M70.1,54.6c0,0.2-0.1,0.4-0.3,0.7 c-0.1,0.1-0.3,0.3-0.8,0.7c-0.4,0.4-1,0.8-1.6,1.3c-0.7,0.5-1.4,1.1-2.3,1.6c-0.9,0.6-1.8,1.1-2.8,1.6c-1,0.5-2,0.9-3.1,1.2 C58,62,57,62.2,55.9,62.2c-0.8,0-1.5-0.1-2.1-0.4c-0.6-0.2-1.1-0.6-1.5-1c-0.4-0.4-0.7-0.9-1-1.5c-0.1-0.2-0.2-0.5-0.2-0.7 c-0.5,0.4-1,0.9-1.5,1.2c-1,0.7-1.9,1.3-2.9,1.7c-1,0.4-1.9,0.6-2.8,0.6c-1.1,0-2-0.3-2.7-1c-0.6-0.6-1-1.6-1-2.9 c0-0.1,0-0.2,0-0.2c0-0.1,0-0.2,0-0.2c-0.4,0.6-0.8,1.2-1.4,1.8c-0.6,0.5-1.2,1-1.8,1.4c-0.7,0.4-1.4,0.7-2.1,0.9 c-0.7,0.2-1.4,0.3-2.1,0.3c-0.6,0-1.1-0.1-1.6-0.2c-0.5-0.2-0.9-0.4-1.2-0.7c-0.3-0.3-0.6-0.8-0.8-1.3C29.1,59.4,29,58.7,29,58 c0-0.1,0-0.2,0-0.3c-0.1,0.1-0.2,0.2-0.3,0.2c-1,0.8-2.1,1.5-3.1,2.2c-1,0.6-2,1.1-3,1.5c-1,0.4-1.9,0.6-2.9,0.6 c-0.6,0-1.1-0.1-1.6-0.2c-0.4-0.2-0.8-0.4-1-0.7c-0.3-0.3-0.4-0.6-0.5-1c-0.1-0.4-0.2-0.8-0.2-1.2c0-0.8,0.1-1.6,0.4-2.4 c0.3-0.8,0.6-1.6,0.9-2.3c0.5-1,0.9-1.9,1.4-2.9c0.5-0.9,0.9-1.8,1.3-2.7h-1c-0.9,0-1.5-0.1-1.8-0.4c-0.3-0.3-0.5-0.6-0.5-1 c0-0.2,0-0.3,0.2-0.6c0.1-0.2,0.2-0.4,0.4-0.6c0.2-0.2,0.4-0.4,0.7-0.5c0.3-0.1,0.6-0.2,1-0.2H22l4.9-9.7c0.3-0.6,0.7-1,1.1-1.3 c0.5-0.3,0.9-0.4,1.4-0.4c0.5,0,0.9,0.1,1.3,0.4c0.4,0.2,0.6,0.7,0.6,1.2c0,0.3-0.1,0.6-0.2,0.9c-0.1,0.3-0.3,0.7-0.5,1.1 c-0.1,0.3-0.3,0.6-0.5,0.9c-0.2,0.4-0.4,0.8-0.6,1.2c-0.2,0.4-0.5,0.8-0.7,1.3c-0.2,0.4-0.5,0.9-0.7,1.3c-0.5,1-1.1,2-1.7,3.1h7.6 c0.4,0,0.7,0,1,0.1c0.3,0,0.6,0.1,0.8,0.2c0.2,0.1,0.4,0.3,0.5,0.5c0,0,0,0,0,0c0.9-0.5,1.7-0.9,2.6-1.2c0.9-0.3,1.7-0.4,2.5-0.4 c0.9,0,1.6,0.1,2.3,0.4c0.3,0.2,0.6,0.4,0.9,0.6c0.1-0.1,0.1-0.3,0.2-0.4c0.2-0.4,0.3-0.7,0.4-1c0.1-0.3,0.2-0.5,0.3-0.6 c0-0.1,0.2-0.5,0.4-1c0.2-0.5,0.5-1.1,0.8-1.8c0.3-0.7,0.6-1.4,0.9-2.2c0.3-0.8,0.6-1.5,0.9-2.2s0.5-1.3,0.7-1.8 c0.2-0.5,0.3-0.8,0.4-1c0.1-0.4,0.3-0.8,0.4-1.1c0.2-0.4,0.4-0.7,0.7-1c0.3-0.3,0.6-0.5,0.9-0.6c0.3-0.2,0.7-0.2,1.2-0.2 c0.6,0,1.1,0.1,1.5,0.4c0.4,0.3,0.6,0.7,0.6,1.5c0,0.3,0,0.6-0.1,0.9c-0.1,0.3-0.2,0.6-0.3,0.9c-0.1,0.3-0.2,0.6-0.3,0.9 c-0.1,0.3-0.2,0.6-0.3,0.8c-0.8,1.5-1.6,3.2-2.4,5c-0.9,1.8-1.7,3.6-2.5,5.5c-0.8,1.8-1.6,3.6-2.4,5.4c-0.8,1.7-1.4,3.3-2,4.7 c0,0,0,0.1,0,0.1c0,0,0,0.1,0,0.1c0,0.3,0.1,0.6,0.2,0.9c0.1,0.3,0.4,0.5,0.7,0.5c0.1,0,0.2,0,0.3,0c0.9-0.3,1.8-0.7,2.7-1.3 c0.9-0.6,1.8-1.2,2.6-1.9c0.4-0.3,0.8-0.7,1.2-1c0.3-0.6,0.6-1.3,1-2c0.6-0.9,1.2-1.9,2-2.8c0.8-0.9,1.6-1.7,2.5-2.4 c0.9-0.7,1.8-1.3,2.8-1.7c1-0.4,2-0.6,3-0.6c0.3,0,0.7,0,1,0.1c0.3,0.1,0.6,0.2,0.8,0.4c0.2,0.2,0.4,0.4,0.5,0.7 c0.1,0.3,0.2,0.6,0.2,1c0,0.5-0.1,1-0.2,1.6c-0.1,0.6-0.3,1.1-0.5,1.6c-0.2,0.5-0.6,0.9-1,1.3c-0.4,0.3-0.9,0.5-1.4,0.5 c-0.3,0-0.5,0-0.6-0.1c-0.1-0.1-0.1-0.3-0.1-0.5c0-0.1,0-0.3,0-0.6c0-0.3,0-0.5,0-0.8c0-0.3,0-0.5-0.1-0.7 c-0.1-0.2-0.3-0.3-0.6-0.3c-0.4,0-0.8,0.1-1.2,0.4c-0.4,0.3-0.9,0.6-1.3,1.1c-0.4,0.4-0.9,0.9-1.3,1.5c-0.4,0.6-0.8,1.1-1.1,1.7 c-0.3,0.6-0.6,1.1-0.8,1.6c-0.2,0.5-0.3,1-0.3,1.3c0,0.5,0.2,1,0.6,1.3c0.4,0.3,0.9,0.5,1.5,0.5c0.7,0,1.4-0.1,2.2-0.3 s1.6-0.5,2.4-0.9c0.8-0.4,1.5-0.7,2.3-1.2c0.7-0.4,1.4-0.8,2-1.2c0.6-0.4,1.1-0.7,1.5-1c0.4-0.3,0.7-0.4,0.8-0.5 c0.2-0.1,0.5-0.2,0.7-0.2c0.2,0,0.3,0,0.5,0.1c0.1,0.1,0.2,0.2,0.3,0.3c0.1,0.1,0.1,0.2,0.2,0.4c0,0.1,0,0.2,0,0.3 C70.1,54.2,70.1,54.4,70.1,54.6z"/>
	<path fill="#FFFFFF" d="M23.2,52c-0.5,1.1-1,2-1.4,2.9c-0.2,0.4-0.4,0.8-0.5,1.3c-0.2,0.5-0.3,0.9-0.3,1.3c0,0.2,0,0.4,0.2,0.5 c0.1,0.1,0.3,0.2,0.5,0.2c0.3,0,0.7-0.1,1.2-0.3c0.5-0.2,1-0.4,1.6-0.8c0.6-0.3,1.2-0.7,1.8-1.1c0.6-0.4,1.3-0.8,1.9-1.3 c0.6-0.4,1.2-0.9,1.8-1.3c0,0,0.1-0.1,0.1-0.1c0.3-0.8,0.7-1.5,1.2-2.2c0.6-0.9,1.3-1.7,2.1-2.4l-8.4,0.1 C24.2,49.8,23.7,50.9,23.2,52z"/>
</svg>
